<svg xmlns="http://www.w3.org/2000/svg" viewBox="0 0 900 600">
  <rect width="900" height="300" fill="#EF3340"/>
  <rect y="300" width="900" height="300" fill="#ffffff"/>
  <path fill="#ffffff" fill-rule="evenodd" d="M 228 150 A 90 90 0 1 0 228 150.001 Z M 255 150 A 72 72 0 1 1 255 150.001 Z"/>
  <g fill="#ffffff">
    <polygon points="330,105 335.88,123.09 351.11,123.09 338.78,134.27 343.67,152.36 330,141.18 316.33,152.36 321.22,134.27 308.89,123.09 324.12,123.09"/>
    <polygon points="378,138 383.88,156.09 399.11,156.09 386.78,167.27 391.67,185.36 378,174.18 364.33,185.36 369.22,167.27 356.89,156.09 372.12,156.09"/>
    <polygon points="360,192 365.88,210.09 381.11,210.09 368.78,221.27 373.67,239.36 360,228.18 346.33,239.36 351.22,221.27 338.89,210.09 354.12,210.09"/>
    <polygon points="300,192 305.88,210.09 321.11,210.09 308.78,221.27 313.67,239.36 300,228.18 286.33,239.36 291.22,221.27 278.89,210.09 294.12,210.09"/>
    <polygon points="282,138 287.88,156.09 303.11,156.09 290.78,167.27 295.67,185.36 282,174.18 268.33,185.36 273.22,167.27 260.89,156.09 276.12,156.09"/>
  </g>
</svg>
