<?xml version="1.0" encoding="UTF-8" standalone="no"?>
<svg
   xmlns:dc="http://purl.org/dc/elements/1.1/"
   xmlns:cc="http://creativecommons.org/ns#"
   xmlns:rdf="http://www.w3.org/1999/02/22-rdf-syntax-ns#"
   xmlns:svg="http://www.w3.org/2000/svg"
   xmlns="http://www.w3.org/2000/svg"
   xmlns:xlink="http://www.w3.org/1999/xlink"
   xmlns:sodipodi="http://sodipodi.sourceforge.net/DTD/sodipodi-0.dtd"
   width="1200"
   height="600"
   viewBox="0 0 252 126"
   id="svg2"
   version="1.1"
   sodipodi:docname="Flag of Zimbabwe.svg">
  <metadata
     id="metadata56">
    <rdf:RDF>
      <cc:Work
         rdf:about="">
        <dc:format>image/svg+xml</dc:format>
        <dc:type
           rdf:resource="http://purl.org/dc/dcmitype/StillImage" />
        <dc:title></dc:title>
      </cc:Work>
    </rdf:RDF>
  </metadata>
  <defs
     id="defs54" />
  <sodipodi:namedview
     pagecolor="#ffffff"
     bordercolor="#666666"
     borderopacity="1"
     objecttolerance="10"
     gridtolerance="10"
     guidetolerance="10"
     id="namedview52"
     showgrid="false" />
  <rect
     fill="#319208"
     width="252"
     height="126"
     id="rect4"
     style="fill:#006400" />
  <rect
     y="18"
     fill="#FFD200"
     width="252"
     height="90"
     id="rect6" />
  <rect
     y="36"
     fill="#DE2010"
     width="252"
     height="54"
     id="rect8"
     style="fill:#d40000" />
  <rect
     y="54"
     width="252"
     height="18"
     id="rect10" />
  <path
     d="M4.583,0l84,63l-84,63H0V0H4.583z"
     id="path12" />
  <path
     d="M 0,-1.2016296e-6 84,62.999999 0,126"
     id="path14"
     style="fill:#ffffff" />
  <g
     transform="matrix(26.920183,0,0,28.305717,31.956045,59.630194)"
     style="fill:#d40000"
     id="star">
    <g
       style="fill:#d40000"
       id="cone">
      <polygon
         transform="matrix(0.95106,0.30902,-0.30902,0.95106,0,-1)"
         points="0,1 0.5,1 0,0 "
         style="fill:#d40000"
         id="triangle" />
      <use
         x="0"
         y="0"
         width="900"
         height="600"
         transform="scale(-1,1)"
         xlink:href="#triangle"
         style="fill:#d40000"
         id="use2189" />
    </g>
    <use
       x="0"
       y="0"
       width="900"
       height="600"
       transform="matrix(0.3090004,0.95106191,-0.95106191,0.3090004,0,0)"
       xlink:href="#cone"
       style="fill:#d40000"
       id="use2191" />
    <use
       x="0"
       y="0"
       width="900"
       height="600"
       transform="matrix(0.3090004,-0.95106191,0.95106191,0.3090004,0,0)"
       xlink:href="#cone"
       style="fill:#d40000"
       id="use2193" />
    <use
       x="0"
       y="0"
       width="900"
       height="600"
       transform="matrix(-0.80901699,0.58778525,-0.58778525,-0.80901699,0,0)"
       xlink:href="#cone"
       style="fill:#d40000"
       id="use2195" />
    <use
       x="0"
       y="0"
       width="900"
       height="600"
       transform="matrix(-0.80901699,-0.58778525,0.58778525,-0.80901699,0,0)"
       xlink:href="#cone"
       style="fill:#d40000"
       id="use2197" />
  </g>
  <g
     id="layer1"
     transform="matrix(0.03437668,0,0,0.03437668,21.702081,41.388597)">
    <path
       id="path7127"
       style="fill:#000000;fill-opacity:0"
       d="m 10.60221,526.28078 0,-496.626533 358.35402,0 358.35402,0 0,496.626533 0,496.62652 -358.35402,0 -358.35402,0 0,-496.62652 z" />
    <path
       id="path7125"
       style="fill:#000000"
       d="m 537.16057,973.47457 c 0.15365,-78.61768 14.54417,-153.41933 44.89588,-233.36849 13.80769,-36.37067 50.08188,-110.24956 59.70398,-121.59785 0.95116,-1.12183 16.41727,1.76197 34.36908,6.40837 36.72721,9.50598 46.75661,7.75648 46.75661,-8.15594 0,-9.11025 -37.54351,-40.36553 -221.115,-184.08005 -123.692,-96.83605 -225.1149,-173.10667 -230.1933,-173.10667 -4.99307,0 -9.97163,-2.5866 -11.06346,-5.74799 -1.09187,-3.1614 -7.0306,-40.67573 -13.1972,-83.36525 -6.16665,-42.68946 -14.48083,-84.777005 -18.47598,-93.527835 -11.68119,-25.585971 -35.79935,-39.097889 -74.38182,-41.671476 -29.20633,-1.948197 -35.31946,-0.8501 -55.092019,9.895933 -13.387173,7.27571 -29.397376,12.087283 -40.219444,12.087283 -21.999258,0 -39.697435,15.862023 -39.697435,35.578877 l 0,13.004898 32.074896,-0.90266 c 91.926912,3.07499 8.028611,11.51925 1.337127,12.73332 -22.822859,4.14075 4.965034,22.79673 31.809821,31.78447 28.885854,9.67112 27.684744,4.00208 27.684744,130.66639 0,104.00019 -0.9137,118.73637 -8.84824,142.70702 -11.647616,35.18791 -11.647616,87.44127 0,121.85743 4.70766,13.91014 8.62434,26.86359 8.7038,28.78544 0.0794,1.92181 -13.625953,18.93058 -30.456376,37.79724 -30.396476,34.07405 -49.033401,70.64315 -49.033401,96.21264 0,5.88688 -3.98172,15.96472 -8.848251,22.39519 -11.226565,14.83443 -11.570719,40.26244 -0.67618,49.95806 11.301505,10.05783 58.025516,190.17825 58.149704,224.16618 0.04526,12.3941 2.156276,12.3379 73.038114,-1.9441 57.22365,-11.52997 192.54238,-14.00205 261.0233,-4.76839 31.63249,4.26519 68.46333,10.56639 81.8463,14.00249 42.14977,10.8223 39.80534,13.0434 39.90475,-37.80453 z" />
    <path
       id="path7123"
       style="fill:#ffcc00;fill-opacity:1"
       d="m 479.55932,999.38998 c -62.40629,-14.03055 -132.92934,-19.38381 -212.35794,-16.11974 -40.14892,1.64993 -82.22083,4.67046 -93.49314,6.71227 l -20.49507,3.71255 -5.08412,-31.99822 c -2.79626,-17.59897 -4.44956,-32.65774 -3.67396,-33.46389 0.77559,-0.80614 20.24966,-4.00985 43.2757,-7.11932 79.05043,-10.67518 248.01683,-6.44727 326.11549,8.16004 l 14.3784,2.68927 0,38.57459 c 0,28.13212 -1.49708,38.40297 -5.53015,37.94087 -3.04159,-0.3486 -22.45243,-4.4385 -43.13521,-9.08842 z" />
    <path
       id="path7121"
       style="fill:#ffcc00;fill-opacity:1"
       d="m 90.236439,1002.2877 c 0,-9.26092 -24.609635,-119.7294 -35.356178,-158.70805 -7.320068,-26.55039 -13.309187,-49.99857 -13.309187,-52.10698 0,-2.10845 6.705244,0.47377 14.900579,5.7383 8.195336,5.2645 18.647328,9.61785 23.226655,9.67409 22.795952,0.27996 35.277642,32.31457 54.606332,140.14875 2.72,15.1747 5.85918,32.07549 6.97601,37.55737 1.77969,8.73542 -0.72875,10.58209 -20.30046,14.94478 -24.73885,5.51444 -30.743751,6.05194 -30.743751,2.75174 z" />
    <path
       id="path7119"
       style="fill:#ffcc00;fill-opacity:1"
       d="m 521.94291,917.74029 c -1.35798,-2.28379 0.49533,-6.70946 4.11842,-9.83486 5.35615,-4.62029 6.58747,-4.33863 6.58747,1.50681 0,8.58473 -7.2157,14.19776 -10.70589,8.32805 z" />
    <path
       id="path7117"
       style="fill:#ffcc00;fill-opacity:1"
       d="m 166.48523,900.17925 c 11.75729,-12.22042 12.00787,-12.26313 21.20266,-3.61419 8.77096,8.25025 8.84405,8.94121 1.27392,12.04337 -4.417,1.81007 -13.9582,3.43648 -21.20269,3.6142 l -13.17181,0.32322 11.89792,-12.3666 z" />
    <path
       id="path7115"
       style="fill:#ffcc00;fill-opacity:1"
       d="m 458.41851,907.19139 c 0.94446,-2.94494 5.58979,-7.97444 10.32299,-11.17668 7.45473,-5.0435 9.66888,-4.32735 16.55449,5.35447 l 7.94878,11.17667 -18.27172,0 c -11.93487,0 -17.67619,-1.85697 -16.55454,-5.35446 z" />
    <path
       id="path7113"
       style="fill:#ffcc00;fill-opacity:1"
       d="m 497.72733,900.62852 c -5.194,-6.86324 -8.79245,-13.1555 -7.99654,-13.98275 0.79589,-0.8273 9.94388,0.006 20.3288,1.85159 l 18.88163,3.35572 -10.88508,10.62703 -10.88511,10.62702 -9.4437,-12.47861 z" />
    <path
       id="path7111"
       style="fill:#ffcc00;fill-opacity:1"
       d="m 136.16052,901.27459 c -3.24872,-8.79943 4.47867,-16.13374 17.11967,-16.2487 10.056,-0.0915 9.8248,0.89131 -3.20267,13.61203 -9.98781,9.75268 -11.2047,9.98324 -13.917,2.63667 z" />
    <path
       id="path7109"
       style="fill:#ffcc00;fill-opacity:1"
       d="m 239.48796,893.00618 11.66588,-12.64205 11.34187,10.34285 c 6.23802,5.68857 11.97901,10.66027 12.7578,11.04824 0.77878,0.38792 -9.57469,1.42256 -23.00774,2.2992 l -24.42369,1.59385 11.66588,-12.64209 z" />
    <path
       id="path7107"
       style="fill:#ffcc00;fill-opacity:1"
       d="m 396.20467,903.89333 -14.78069,-2.84346 10.63811,-10.34289 10.63812,-10.34285 12.71255,13.79164 c 13.9075,15.08817 12.44891,15.82763 -19.20809,9.73756 z" />
    <path
       id="path7105"
       style="fill:#ffcc00;fill-opacity:1"
       d="m 200.83953,891.85308 -10.39063,-11.49598 15.89375,0 c 8.74158,0 19.34599,-1.3769 23.56527,-3.05977 6.18798,-2.4681 5.66925,-0.24496 -2.68221,11.49598 -5.69451,8.00567 -11.62311,14.55576 -13.17464,14.55576 -1.5515,0 -7.49672,-5.17319 -13.21154,-11.49599 z" />
    <path
       id="path7103"
       style="fill:#ffcc00;fill-opacity:1"
       d="m 313.67203,889.53507 12.73306,-13.81398 12.42733,12.3751 c 6.835,6.80632 12.42731,13.02261 12.42731,13.81399 0,0.79138 -11.32221,1.43889 -25.16043,1.43889 l -25.16039,0 12.73312,-13.814 z" />
    <path
       id="path7101"
       style="fill:#ffcc00;fill-opacity:1"
       d="m 430.89396,891.85308 -10.39063,-11.49598 20.67977,0 c 22.34271,0 25.21312,3.50711 12.58916,15.38168 -10.38019,9.76399 -10.57025,9.73166 -22.8783,-3.8857 z" />
    <path
       id="path7099"
       style="fill:#ffcc00;fill-opacity:1"
       d="m 276.04962,887.25469 -10.39062,-11.49598 23.663,0 23.66296,0 -10.39059,11.49598 c -12.82933,14.19414 -13.7154,14.19414 -26.54475,0 z" />
    <path
       id="path7097"
       style="fill:#ffcc00;fill-opacity:1"
       d="m 355.68386,887.25469 -10.39063,-11.49598 23.663,0 23.66295,0 -10.39058,11.49598 c -12.82935,14.19414 -13.7154,14.19414 -26.54474,0 z" />
    <path
       id="path7095"
       style="fill:#ffcc00;fill-opacity:1"
       d="m 497.25582,875.63013 c -10.94971,-1.96673 -54.94731,-6.18143 -97.77243,-9.36605 -74.33248,-5.52759 -166.33015,-2.56935 -248.41526,7.98792 -16.94377,2.17921 -21.01458,1.35707 -21.01458,-4.24392 0,-11.85754 88.71389,-19.54055 225.63031,-19.54055 66.91486,0 135.10167,1.71669 151.52624,3.81479 27.63148,3.52977 29.86283,4.64645 29.86283,14.94478 0,12.26566 -3.78666,12.87458 -39.81711,6.40303 z" />
    <path
       id="path7093"
       style="fill:#ffcc00;fill-opacity:1"
       d="m 153.21521,836.46037 c 9.089,-8.73529 18.19854,-15.88239 20.24342,-15.88239 2.04483,0 8.25037,5.01464 13.79008,11.14365 l 10.07214,11.14366 -21.46732,2.89115 c -11.807,1.59012 -25.44902,3.72258 -30.31555,4.73874 -6.57478,1.37288 -4.60215,-2.23326 7.67723,-14.03481 z" />
    <path
       id="path7091"
       style="fill:#ffcc00;fill-opacity:1"
       d="m 121.88497,838.56198 c -3.28057,-9.12428 -2.35986,-11.73175 5.2021,-14.73261 5.05351,-2.00541 12.92142,-3.04006 17.48433,-2.2992 7.24826,1.17686 6.59119,3.03773 -5.20211,14.73261 l -13.49826,13.38561 -3.98606,-11.08641 z" />
    <path
       id="path7089"
       style="fill:#ffcc00;fill-opacity:1"
       d="m 532.6488,844.06194 c 0,-2.25855 2.88489,-5.25708 6.41087,-6.6634 4.28485,-1.70905 5.59505,-0.34723 3.9508,4.1064 -2.68528,7.27343 -10.36167,9.16773 -10.36167,2.557 z" />
    <path
       id="path7087"
       style="fill:#ffcc00;fill-opacity:1"
       d="m 235.34185,827.49856 c 6.57301,-7.57475 11.95235,-14.12888 11.95398,-14.56476 0.002,-0.43588 6.31437,5.06876 14.02819,12.2325 l 14.02513,13.0251 -25.97916,1.53966 -25.97911,1.53968 11.95097,-13.77218 z" />
    <path
       id="path7085"
       style="fill:#ffcc00;fill-opacity:1"
       d="m 471.78202,840.20121 -18.83762,-1.76201 13.51965,-11.82417 13.51968,-11.82418 10.84808,10.59273 c 11.83069,11.55213 14.00036,18.64427 5.31797,17.38299 -3.04158,-0.44186 -14.00709,-1.59625 -24.36776,-2.56536 z" />
    <path
       id="path7083"
       style="fill:#ffcc00;fill-opacity:1"
       d="m 198.14536,827.4517 -12.75319,-10.56958 21.2004,-3.30446 c 11.66026,-1.81742 21.93454,-2.53781 22.83175,-1.60083 0.89722,0.93696 -2.90403,7.18024 -8.44725,13.87404 l -10.0785,12.17043 -12.75321,-10.5696 z" />
    <path
       id="path7081"
       style="fill:#ffcc00;fill-opacity:1"
       d="m 391.84558,835.04568 -10.29158,-3.0091 11.2679,-11.00263 c 9.54186,-9.31722 12.34132,-10.07664 18.27535,-4.95789 3.85407,3.32459 8.95959,9.83615 11.34566,14.47013 3.7405,7.26451 2.6405,8.36222 -7.98377,7.96699 -6.7771,-0.25207 -16.9532,-1.81245 -22.61356,-3.4675 z" />
    <path
       id="path7079"
       style="fill:#ffcc00;fill-opacity:1"
       d="m 503.61368,824.52041 -12.99404,-14.4511 11.0603,2.89235 c 6.08317,1.59076 19.02373,2.93088 28.7568,2.97796 l 17.6965,0.0856 -13.27237,11.30777 c -7.29981,6.21927 -14.39305,11.38221 -15.76276,11.47317 -1.3697,0.091 -8.3377,-6.33763 -15.48443,-14.28578 z" />
    <path
       id="path7077"
       style="fill:#ffcc00;fill-opacity:1"
       d="m 276.66007,823.55259 c -5.20227,-5.75572 -9.45869,-11.88354 -9.45869,-13.61737 0,-1.73382 11.25825,-3.15242 25.01834,-3.15242 l 25.01836,0 -8.3784,9.62269 c -14.81926,17.02012 -21.86278,18.58353 -32.19961,7.1471 z" />
    <path
       id="path7075"
       style="fill:#ffcc00;fill-opacity:1"
       d="m 317.45947,822.5173 c 14.25757,-13.03184 19.17556,-12.72716 28.4311,1.76152 6.37343,9.97703 6.17218,10.09264 -17.31789,9.94903 l -23.76625,-0.14532 12.65304,-11.56523 z" />
    <path
       id="path7073"
       style="fill:#ffcc00;fill-opacity:1"
       d="m 427.23937,820.32355 -10.29078,-13.54075 10.84379,0 c 5.96408,0 16.94966,1.2693 24.41245,2.82061 l 13.56861,2.82064 -12.54824,10.97454 c -6.90154,6.03604 -13.25627,10.86008 -14.12166,10.72014 -0.86536,-0.13993 -6.20426,-6.34777 -11.86417,-13.79518 z" />
    <path
       id="path7071"
       style="fill:#ffcc00;fill-opacity:1"
       d="m 355.68386,818.27879 -10.39063,-11.49599 23.663,0 23.66295,0 -10.39058,11.49599 c -12.82935,14.19413 -13.7154,14.19413 -26.54474,0 z" />
    <path
       id="path7069"
       style="fill:#ffcc00;fill-opacity:1"
       d="m 119.11707,803.334 c 1.80545,-4.42595 5.63386,-18.39357 8.50759,-31.03915 l 5.22498,-22.99197 48.56736,-25.29117 c 26.71203,-13.91014 56.44346,-31.6691 66.06982,-39.46429 9.62637,-7.79525 19.75151,-15.52325 22.5003,-17.17344 6.87991,-4.13009 135.18007,4.71639 191.87571,13.23008 43.6615,6.55649 120.25276,20.71678 122.8326,22.7095 0.6431,0.49672 -6.04543,21.39393 -14.86334,46.43821 -8.81793,25.04429 -16.83271,48.35302 -17.81066,51.79723 -1.3344,4.69961 -6.72896,5.49047 -21.61991,3.16949 -72.70392,-11.3321 -282.16675,-10.2764 -362.74292,1.82823 -45.80597,6.88122 -52.47887,6.43954 -48.54153,-3.21272 z" />
    <g
       id="g1930">
      <path
         id="path7067"
         style="fill:#000000;fill-opacity:1"
         d="m 488.74787,774.94775 c 28.49812,-29.62065 8.99899,-78.5264 -31.30917,-78.5264 -25.86997,0 -44.24123,19.09492 -44.24123,45.98393 0,41.89593 47.05232,62.16316 75.5504,32.54247 z" />
      <path
         id="path7065"
         style="fill:#ffcc00;fill-opacity:1"
         d="m 441.16315,773.90419 c -24.07521,-12.5425 -22.36487,-52.76597 2.70256,-63.55822 24.21097,-10.42355 48.96598,6.0439 48.96598,32.57305 0,25.22752 -29.15732,42.71292 -51.66854,30.98517 z" />
    </g>
    <use
       xlink:href="#g1930"
       height="1052.3622"
       width="744.09448"
       y="0"
       x="0"
       id="use1934"
       transform="translate(-175.132,-5.24069)" />
    <path
       id="path7059"
       style="fill:#ffcc00;fill-opacity:1"
       d="m 99.194186,790.38907 c 6.220574,-17.00592 5.413794,-38.78699 -1.436739,-38.78699 -3.623574,0 -5.751364,5.95431 -5.751364,16.09437 0,8.8519 -2.641594,18.68098 -5.870236,21.84237 -4.852289,4.75125 -5.444727,1.16307 -3.416523,-20.69277 1.349535,-14.54242 0.761031,-26.44077 -1.307726,-26.44077 -3.968973,0 -11.666861,22.02686 -14.463307,41.38555 -1.639668,11.3509 -1.70745,11.32488 -5.370393,-2.06115 -2.860639,-10.45402 -1.524332,-17.50401 5.83816,-30.80058 5.251385,-9.48391 9.548009,-23.3667 9.548009,-30.85063 0,-11.27406 8.439057,-22.1562 49.218113,-63.46647 27.06996,-27.42267 58.57836,-61.43385 70.01865,-75.58049 19.79525,-24.47809 20.7644,-26.9803 20.0523,-51.77438 -0.41153,-14.32928 -2.00139,-27.35575 -3.53302,-28.94771 -5.17047,-5.37411 -12.09808,22.38953 -9.36497,37.53186 2.47077,13.68923 -0.0727,18.30832 -28.62595,51.98792 -17.23568,20.33009 -46.43229,51.07822 -64.88128,68.32919 -33.984392,31.77747 -46.156214,48.951 -46.156214,65.12282 0,4.90764 -3.846071,17.8518 -8.546783,28.76479 -4.700766,10.913 -7.394977,22.00267 -5.987173,24.64372 1.576049,2.95667 0.540761,2.8744 -2.694066,-0.21406 -3.830501,-3.65715 -4.080856,-10.4413 -0.924286,-25.04358 2.381149,-11.01524 3.320253,-21.72481 2.086903,-23.79904 -4.745848,-7.98139 -10.34122,2.28255 -13.121957,24.07048 -1.594501,12.49346 -4.638518,21.598 -6.764436,20.23237 -6.399769,-4.11109 -4.357991,-26.75322 3.45855,-38.35245 4.028123,-5.97749 9.018937,-20.29891 11.090708,-31.82542 5.810596,-32.32772 19.776938,-57.95172 50.637497,-92.90457 15.553237,-17.61567 28.278647,-32.73059 28.278647,-33.58874 0,-0.85811 -4.10523,-13.78253 -9.12276,-28.72088 -11.60156,-34.5407 -12.416787,-87.14949 -1.84605,-119.12852 11.13958,-33.69983 34.06278,-67.01703 70.33272,-102.22344 37.44287,-36.34492 73.01715,-58.21696 90.2773,-55.50491 14.85196,2.33363 443.19137,337.20605 443.19137,346.48355 0,3.67208 -3.484,6.62223 -7.74222,6.55588 -4.25822,-0.0663 -113.18497,-30.89358 -242.05947,-68.50499 -205.95496,-60.10699 -235.54172,-69.86395 -244.43288,-80.60768 -12.63578,-15.26864 -13.18004,-38.60959 -1.26729,-54.35076 4.86654,-6.43048 8.84825,-14.42231 8.84825,-17.7596 0,-10.17435 -21.86491,15.84906 -26.04508,30.9986 -4.88654,17.70947 4.24728,47.39141 17.53762,56.99167 5.25184,3.79368 44.48979,17.25491 87.19545,29.91384 72.88558,21.605 77.8994,23.8045 81.76918,35.87125 9.29093,28.97056 -21.32641,62.66993 -65.62205,72.22792 -14.28409,3.08213 -32.4767,11.58133 -45.02378,21.03411 -49.87863,37.57767 -84.6914,59.66641 -113.80403,72.20885 -17.11928,7.37537 -33.57831,15.81867 -36.57561,18.76283 -2.99725,2.94417 -7.45438,16.34058 -9.90463,29.76978 -5.20325,28.5174 -7.30441,32.90219 -15.76621,32.90219 -4.897636,0 -5.323586,-2.57523 -1.950944,-11.79533 z" />
    <path
       id="path7057"
       style="fill:#ffcc00;fill-opacity:1"
       d="M 548.13324,684.53027 C 502.61962,674.07743 430.62211,664.11873 357.45315,658.1554 l -70.3432,-5.733 26.54474,-10.05922 c 14.5996,-5.53255 35.58017,-15.04595 46.62353,-21.14089 17.32611,-9.56244 24.30109,-10.77091 50.87742,-8.81483 39.46115,2.90438 66.05739,-4.37483 75.92474,-20.78011 4.12359,-6.85579 8.04266,-13.26765 8.70906,-14.24863 0.66636,-0.98096 32.00309,7.07795 69.63712,17.90872 l 68.42553,19.69235 -13.26126,23.47677 c -7.2937,12.91225 -16.49715,30.20199 -20.45219,38.42161 -8.02993,16.68849 -10.8515,17.10364 -52.0054,7.6521 z" />
    <path
       id="path7035"
       style="fill:#ffcc00;fill-opacity:1"
       d="m 120.17382,339.40192 c -1.24164,-19.87876 -1.2419,-66.26589 -6.3e-4,-103.08248 2.56551,-76.09274 0.5801,-83.58205 -24.37267,-91.93632 -20.370255,-6.82007 -46.964041,-14.15839 -39.113274,-18.82278 8.571429,-5.09255 16.506653,-1.50955 38.291012,-6.92845 7.714682,-1.91904 7.394802,-1.61864 6.153002,-8.20685 C 98.894366,98.557271 87.223168,93.208834 54.412985,94.978245 28.646268,96.367791 25.457487,95.631081 27.20325,88.692243 30.732198,74.666035 45.180635,65.398432 66.830256,63.274485 c 11.656731,-1.143617 28.807103,-6.290512 38.111884,-11.43759 13.72986,-7.594883 23.06622,-9.03561 49.5469,-7.645696 57.9536,3.041784 68.92316,18.950803 84.11008,121.983711 5.89425,39.98846 10.75932,77.074 10.81126,82.41237 0.0675,6.93602 -8.02102,15.16122 -28.34191,28.82065 -29.92331,20.11411 -68.6059,56.69332 -87.44138,82.68675 l -11.19578,15.45043 -2.25749,-36.14319 z" />
    <path
       id="path2254"
       style="opacity:1;fill:#000000;fill-opacity:1;stroke:#000000;stroke-width:0.323221;stroke-linecap:square;stroke-miterlimit:4;stroke-dasharray:none;stroke-opacity:1"
       transform="matrix(0.809536,0,0,0.769569,11.8008,5.87005)"
       d="m 174.28571,95.219322 a 18.57143,20.000002 0 1 1 -37.14286,0 18.57143,20.000002 0 1 1 37.14286,0 z" />
    <path
       id="path2256"
       style="opacity:1;fill:#ffcc00;fill-opacity:1;stroke:#000000;stroke-width:0.32499999;stroke-linecap:square;stroke-miterlimit:4;stroke-dasharray:none;stroke-opacity:1"
       transform="matrix(1.57411,0,0,2.32782,-116.696,-125.753)"
       d="m 167.85714,88.076469 a 6.4285712,4.2857141 0 1 1 -12.85714,0 6.4285712,4.2857141 0 1 1 12.85714,0 z" />
    <path
       id="path5389"
       style="opacity:1;fill:#ffcc00;fill-opacity:1;stroke:#000000;stroke-width:0.25511801;stroke-linecap:square;stroke-miterlimit:4;stroke-dasharray:none;stroke-opacity:1"
       transform="translate(-3.57143,-2.85714)"
       d="m 410.71429,558.07648 a 7.5,5 0 1 1 -15,0 7.5,5 0 1 1 15,0 z" />
    <path
       id="path5409"
       style="opacity:1;fill:#ffcc00;fill-opacity:1;stroke:#000000;stroke-width:0.25511801;stroke-linecap:square;stroke-miterlimit:4;stroke-dasharray:none;stroke-opacity:1"
       transform="translate(18.2143,-9.21504e-6)"
       d="m 410.71429,558.07648 a 7.5,5 0 1 1 -15,0 7.5,5 0 1 1 15,0 z" />
    <path
       id="path5411"
       style="opacity:1;fill:#ffcc00;fill-opacity:1;stroke:#000000;stroke-width:0.25511801;stroke-linecap:square;stroke-miterlimit:4;stroke-dasharray:none;stroke-opacity:1"
       transform="translate(41.0714,4.28571)"
       d="m 410.71429,558.07648 a 7.5,5 0 1 1 -15,0 7.5,5 0 1 1 15,0 z" />
    <path
       id="path5415"
       style="opacity:1;fill:#ffcc00;fill-opacity:1;stroke:#000000;stroke-width:0.25511801;stroke-linecap:square;stroke-miterlimit:4;stroke-dasharray:none;stroke-opacity:1"
       transform="translate(61.7857,8.57142)"
       d="m 410.71429,558.07648 a 7.5,5 0 1 1 -15,0 7.5,5 0 1 1 15,0 z" />
    <path
       id="path5417"
       style="opacity:1;fill:#ffcc00;fill-opacity:1;stroke:#000000;stroke-width:0.25511801;stroke-linecap:square;stroke-miterlimit:4;stroke-dasharray:none;stroke-opacity:1"
       transform="translate(6.78571,13.5714)"
       d="m 410.71429,558.07648 a 7.5,5 0 1 1 -15,0 7.5,5 0 1 1 15,0 z" />
    <path
       id="path5419"
       style="opacity:1;fill:#ffcc00;fill-opacity:1;stroke:#000000;stroke-width:0.25511801;stroke-linecap:square;stroke-miterlimit:4;stroke-dasharray:none;stroke-opacity:1"
       transform="translate(66.0714,29.2857)"
       d="m 410.71429,558.07648 a 7.5,5 0 1 1 -15,0 7.5,5 0 1 1 15,0 z" />
    <path
       id="path5421"
       style="opacity:1;fill:#ffcc00;fill-opacity:1;stroke:#000000;stroke-width:0.25511801;stroke-linecap:square;stroke-miterlimit:4;stroke-dasharray:none;stroke-opacity:1"
       transform="translate(41.7857,30.7143)"
       d="m 410.71429,558.07648 a 7.5,5 0 1 1 -15,0 7.5,5 0 1 1 15,0 z" />
    <path
       id="path5423"
       style="opacity:1;fill:#ffcc00;fill-opacity:1;stroke:#000000;stroke-width:0.25511801;stroke-linecap:square;stroke-miterlimit:4;stroke-dasharray:none;stroke-opacity:1"
       transform="translate(16.7857,29.2857)"
       d="m 410.71429,558.07648 a 7.5,5 0 1 1 -15,0 7.5,5 0 1 1 15,0 z" />
    <path
       id="path5425"
       style="opacity:1;fill:#ffcc00;fill-opacity:1;stroke:#000000;stroke-width:0.25511801;stroke-linecap:square;stroke-miterlimit:4;stroke-dasharray:none;stroke-opacity:1"
       transform="translate(-4.64287,30)"
       d="m 410.71429,558.07648 a 7.5,5 0 1 1 -15,0 7.5,5 0 1 1 15,0 z" />
    <path
       id="path5443"
       style="opacity:1;fill:#ffcc00;fill-opacity:1;stroke:#000000;stroke-width:0.25511801;stroke-linecap:square;stroke-miterlimit:4;stroke-dasharray:none;stroke-opacity:1"
       transform="translate(49.6428,19.2857)"
       d="m 410.71429,558.07648 a 7.5,5 0 1 1 -15,0 7.5,5 0 1 1 15,0 z" />
    <path
       id="path5445"
       style="opacity:1;fill:#ffcc00;fill-opacity:1;stroke:#000000;stroke-width:0.25511801;stroke-linecap:square;stroke-miterlimit:4;stroke-dasharray:none;stroke-opacity:1"
       transform="translate(28.2143,17.1429)"
       d="m 410.71429,558.07648 a 7.5,5 0 1 1 -15,0 7.5,5 0 1 1 15,0 z" />
    <path
       id="path5451"
       style="opacity:1;fill:#ffcc00;fill-opacity:1;stroke:#000000;stroke-width:0.25511801;stroke-linecap:square;stroke-miterlimit:4;stroke-dasharray:none;stroke-opacity:1"
       transform="translate(6.07142,41.4286)"
       d="m 410.71429,558.07648 a 7.5,5 0 1 1 -15,0 7.5,5 0 1 1 15,0 z" />
    <path
       id="path5453"
       style="opacity:1;fill:#ffcc00;fill-opacity:1;stroke:#000000;stroke-width:0.25511801;stroke-linecap:square;stroke-miterlimit:4;stroke-dasharray:none;stroke-opacity:1"
       transform="translate(28.9286,42.1428)"
       d="m 410.71429,558.07648 a 7.5,5 0 1 1 -15,0 7.5,5 0 1 1 15,0 z" />
    <path
       id="path5455"
       style="opacity:1;fill:#ffcc00;fill-opacity:1;stroke:#000000;stroke-width:0.25511801;stroke-linecap:square;stroke-miterlimit:4;stroke-dasharray:none;stroke-opacity:1"
       transform="translate(53.2143,42.8571)"
       d="m 410.71429,558.07648 a 7.5,5 0 1 1 -15,0 7.5,5 0 1 1 15,0 z" />
    <path
       id="path5457"
       style="opacity:1;fill:#ffcc00;fill-opacity:1;stroke:#000000;stroke-width:0.25511801;stroke-linecap:square;stroke-miterlimit:4;stroke-dasharray:none;stroke-opacity:1"
       transform="translate(-15.3572,41.0714)"
       d="m 410.71429,558.07648 a 7.5,5 0 1 1 -15,0 7.5,5 0 1 1 15,0 z" />
    <path
       id="path5459"
       style="opacity:1;fill:#ffcc00;fill-opacity:1;stroke:#000000;stroke-width:0.25511801;stroke-linecap:square;stroke-miterlimit:4;stroke-dasharray:none;stroke-opacity:1"
       transform="translate(73.5714,18.9286)"
       d="m 410.71429,558.07648 a 7.5,5 0 1 1 -15,0 7.5,5 0 1 1 15,0 z" />
  </g>
</svg>
